# xmcd CD database file
#
# Track frame offsets:
#	150
#	23745
#	54422
#	80657
#	99250
#	109855
#	137462
#	174475
#	195337
#	208277
#
# Disc length: 3013 seconds
#
# Revision: 0
# Processed by: cddbd v1.4PL0 Copyright (c) Steve Scherf et al.
# Submitted via: CDex 1.50beta9
#
DISCID=7d0bc30a
DTITLE=Oliver Nelson - More blues and the abstract truth
DYEAR=1900
DGENRE=Jazz
TTITLE0=Blues and the abstract truth
TTITLE1=Blues O'mighty
TTITLE2=Theme from Mr. Broadway
TTITLE3=Midnight blue
TTITLE4=The critic's choice
TTITLE5=One for Bob
TTITLE6=Blues for Mr. Broadway
TTITLE7=Goin' to Chicago blues
TTITLE8=Night lights
TTITLE9=One for Phil
EXTD=
EXTT0=
EXTT1=
EXTT2=
EXTT3=
EXTT4=
EXTT5=
EXTT6=
EXTT7=
EXTT8=
EXTT9=
PLAYORDER=
